<svg xmlns="http://www.w3.org/2000/svg" viewBox="0 0 512 512" role="img" aria-label="Sport ERP">
  <defs>
    <linearGradient id="g" x1="0" y1="0" x2="1" y2="1">
      <stop offset="0" stop-color="#2563EB"/>
      <stop offset="1" stop-color="#1D4ED8"/>
    </linearGradient>
  </defs>
  <rect width="512" height="512" rx="96" fill="url(#g)"/>
  <path d="M144 358c32 27 75 37 112 37 53 0 96-27 96-70 0-37-27-59-75-70l-32-7c-21-5-32-13-32-27 0-16 16-27 37-27 21 0 37 11 48 27l59-27c-21-37-59-59-107-59-53 0-96 27-96 70 0 37 27 59 75 70l32 7c21 5 32 13 32 27 0 16-16 27-37 27-27 0-48-11-64-32z" fill="#fff"/>
</svg>
