<svg xmlns="http://www.w3.org/2000/svg" viewBox="0 0 192 192" role="img" aria-label="Sport ERP">
  <defs>
    <linearGradient id="g" x1="0" y1="0" x2="1" y2="1">
      <stop offset="0" stop-color="#2563EB"/>
      <stop offset="1" stop-color="#1D4ED8"/>
    </linearGradient>
  </defs>
  <rect width="192" height="192" rx="36" fill="url(#g)"/>
  <path d="M54 134c12 10 28 14 42 14 20 0 36-10 36-26 0-14-10-22-28-26l-12-3c-8-2-12-5-12-10 0-6 6-10 14-10 8 0 14 4 18 10l22-10c-8-14-22-22-40-22-20 0-36 10-36 26 0 14 10 22 28 26l12 3c8 2 12 5 12 10 0 6-6 10-14 10-10 0-18-4-24-12z" fill="#fff"/>
</svg>
